<svg width="1280" height="540" viewBox="0 0 1280 540" fill="none" xmlns="http://www.w3.org/2000/svg">
<g clip-path="url(#clip0)">
<rect width="1280" height="540" fill="#121214"/>
<g opacity="0.15">
<path opacity="0.4" d="M1427.37 430.1L1312.96 315.545C1267.65 270.184 1267.65 197.915 1312.96 152.554L1427.37 37.9988C1472.67 -7.36192 1544.85 -7.36192 1590.15 37.9988L1704.57 152.554C1749.87 197.915 1749.87 270.184 1704.57 315.545L1590.15 430.1C1545.62 474.692 1472.67 474.692 1427.37 430.1Z" fill="#667DFF"/>
<path opacity="0.3" d="M1401.18 493.281L1249.95 341.862C1190.07 281.905 1190.07 186.38 1249.95 126.422L1401.18 -24.996C1461.06 -84.9535 1556.46 -84.9535 1616.35 -24.996L1767.58 126.422C1827.46 186.38 1827.46 281.905 1767.58 341.862L1616.35 493.281C1557.48 552.222 1461.06 552.222 1401.18 493.281Z" fill="#667DFF"/>
<path opacity="0.2" d="M1368.35 572.456L1170.99 374.842C1092.84 296.592 1092.84 171.924 1170.99 93.6743L1368.35 -103.939C1446.5 -182.189 1571.02 -182.189 1649.17 -103.939L1846.54 93.6743C1924.69 171.924 1924.69 296.592 1846.54 374.842L1649.17 572.456C1572.34 649.379 1446.5 649.379 1368.35 572.456Z" fill="#667DFF"/>
<path opacity="0.2" d="M1332.88 658.029L1085.65 410.487C987.75 312.467 987.75 156.3 1085.65 58.2806L1332.88 -189.261C1430.77 -287.281 1586.75 -287.281 1684.64 -189.261L1931.88 58.2806C2029.77 156.3 2029.77 312.467 1931.88 410.487L1684.64 658.029C1588.41 754.388 1430.77 754.388 1332.88 658.029Z" fill="#667DFF"/>
<path opacity="0.15" d="M1296.41 746.002L997.913 447.132C879.717 328.787 879.717 140.239 997.913 21.8944L1296.41 -276.975C1414.6 -395.32 1602.92 -395.32 1721.11 -276.975L2019.61 21.8944C2137.8 140.239 2137.8 328.787 2019.61 447.132L1721.11 746.002C1604.92 862.341 1414.6 862.341 1296.41 746.002Z" fill="#667DFF"/>
<path opacity="0.1" d="M1249 860.367L883.86 494.769C739.275 350.003 739.275 119.359 883.86 -25.4076L1249 -391.004C1393.58 -535.77 1623.94 -535.77 1768.52 -391.004L2133.66 -25.4076C2278.25 119.359 2278.25 350.003 2133.66 494.769L1768.52 860.367C1626.39 1002.68 1393.58 1002.68 1249 860.367Z" fill="#667DFF"/>
<path opacity="0.1" d="M1204.57 967.533L776.985 539.409C607.672 369.884 607.672 99.7928 776.985 -69.7326L1204.57 -497.856C1373.88 -667.381 1643.64 -667.381 1812.95 -497.856L2240.54 -69.7326C2409.85 99.7928 2409.85 369.884 2240.54 539.409L1812.95 967.533C1646.51 1134.19 1373.88 1134.19 1204.57 967.533Z" fill="#667DFF"/>
</g>
<path d="M183.048 210.822C191.088 210.822 198.618 213.949 204.298 219.628L239.587 254.917C245.266 260.596 248.393 268.126 248.393 276.167C248.393 284.207 245.266 291.737 239.587 297.417L204.298 332.706C198.618 338.385 191.088 341.512 183.048 341.512C175.007 341.512 167.477 338.385 161.798 332.706L126.509 297.417C120.83 291.737 117.703 284.207 117.703 276.167C117.703 268.126 120.83 260.596 126.509 254.917L161.798 219.628C167.477 213.949 175.007 210.822 183.048 210.822ZM183.048 205.398C173.986 205.398 164.861 208.844 157.969 215.799L122.68 251.088C108.833 264.936 108.833 287.398 122.68 301.31L157.969 336.598C164.925 343.554 173.986 347 183.048 347C192.109 347 201.235 343.554 208.126 336.598L243.415 301.31C257.263 287.462 257.263 265 243.415 251.088L208.126 215.799C201.235 208.844 192.173 205.398 183.048 205.398Z" fill="#0B733B"/>
<path d="M243.479 301.31L208.126 336.598C194.279 350.446 171.817 350.446 157.905 336.598L122.616 301.31C112.023 290.717 109.534 275.146 115.086 262.192C116.809 261.745 118.596 261.554 120.447 261.554C132.635 261.554 142.462 271.445 142.462 283.569C142.462 286.952 141.697 290.078 140.356 292.95C142.079 292.376 143.866 292.057 145.781 292.057C153.693 292.057 160.33 297.481 162.117 304.819C162.691 304.692 163.266 304.692 163.904 304.692C170.03 304.692 175.007 309.542 175.262 315.604C177.624 314.391 180.24 313.689 183.048 313.689C185.856 313.689 188.536 314.391 190.833 315.604C191.088 309.542 196.066 304.692 202.192 304.692C202.766 304.692 203.404 304.756 203.979 304.819C205.765 297.481 212.402 292.057 220.315 292.057C222.229 292.057 224.016 292.376 225.739 292.95C224.399 290.078 223.633 286.952 223.633 283.569C223.633 271.381 233.46 261.554 245.649 261.554C247.499 261.554 249.286 261.809 251.009 262.192C256.561 275.082 254.072 290.717 243.479 301.31Z" fill="url(#paint0_radial)"/>
<path d="M190.961 279.486H183.048H175.199L168.562 338.832H183.048H197.533L190.961 279.486Z" fill="url(#paint1_linear)"/>
<path d="M186.813 279.486H183.048H179.347L176.22 338.832H183.048H189.94L186.813 279.486Z" fill="url(#paint2_linear)"/>
<path d="M183.048 180C178.836 180 168.562 201.378 168.562 210.631C168.562 227.094 168.562 276.167 168.562 276.167H183.048H197.533C197.533 276.167 197.533 227.094 197.533 210.631C197.533 201.441 187.323 180 183.048 180Z" fill="white"/>
<path d="M191.982 201.952C191.407 201.505 188.855 199.591 183.048 199.591C177.177 199.591 174.624 201.505 174.114 201.952C174.05 202.016 173.986 202.08 173.986 202.207V203.803C173.986 204.058 174.305 204.249 174.497 204.058C175.518 203.356 178.134 202.016 183.048 202.016C187.962 202.016 190.578 203.356 191.599 204.058C191.854 204.185 192.109 204.058 192.109 203.803V202.207C192.109 202.143 192.109 202.016 191.982 201.952Z" fill="#04D361"/>
<path d="M168.562 249.11C168.562 249.11 151.141 263.021 150.056 282.931C149.992 284.016 151.077 284.91 152.098 284.527C157.203 282.931 160.713 276.167 168.562 276.167V249.11Z" fill="#04D361"/>
<path d="M197.533 249.11C197.533 249.11 214.955 263.021 216.039 282.931C216.103 284.016 215.018 284.91 213.997 284.527C208.892 282.931 205.383 276.167 197.533 276.167V249.11Z" fill="#04D361"/>
<path d="M183.048 276.167H168.562L171.689 282.868C171.689 282.868 180.304 283.761 183.048 283.761C185.792 283.761 194.407 282.868 194.407 282.868L197.533 276.167H183.048Z" fill="#04D361"/>
<path d="M183.048 249.11C181.452 249.11 179.538 265.702 179.538 283.569C179.538 286.377 181.325 289.185 183.048 289.185C184.835 289.185 186.558 286.377 186.558 283.569C186.621 265.702 184.643 249.11 183.048 249.11Z" fill="#04D361"/>
<path d="M305.374 241.228H316.775V296.588H305.374V241.228Z" fill="white"/>
<path d="M349.586 290C345.025 290 340.845 289.24 337.424 287.847C333.877 286.453 331.217 284.426 329.316 281.639C327.416 278.852 326.403 275.559 326.403 271.758C326.403 267.958 327.29 264.664 329.19 261.877C331.09 259.09 333.75 256.936 337.297 255.416C340.845 253.896 344.898 253.136 349.712 253.136C350.979 253.136 352.246 253.262 353.513 253.389C354.78 253.516 355.92 253.769 357.187 254.023L378.596 254.149V262.51C375.682 262.51 372.769 262.257 369.728 261.497C366.688 260.737 364.154 259.85 361.874 258.963L361.62 258.33C363.521 259.217 365.421 260.357 367.068 261.75C368.841 263.144 370.108 264.664 371.248 266.311C372.262 268.084 372.769 270.111 372.769 272.392C372.769 276.065 371.882 279.232 369.982 281.893C368.081 284.553 365.421 286.58 362.001 287.973C358.327 289.367 354.273 290 349.586 290ZM363.901 314.07V312.043C363.901 309.383 363.014 307.609 361.367 306.596C359.72 305.582 357.44 305.076 354.526 305.076H341.225C338.691 305.076 336.537 304.822 334.764 304.442C332.99 304.062 331.597 303.429 330.583 302.669C329.57 301.909 328.81 301.022 328.303 300.008C327.796 298.995 327.669 297.981 327.669 296.841C327.669 294.561 328.43 292.787 329.95 291.647C331.47 290.507 333.37 289.747 335.904 289.24C338.437 288.86 341.225 288.734 344.138 288.987L349.586 289.874C346.039 290 343.378 290.254 341.605 290.761C339.831 291.267 338.944 292.154 338.944 293.674C338.944 294.561 339.325 295.194 339.958 295.701C340.591 296.208 341.605 296.461 342.871 296.461H356.806C360.607 296.461 363.901 296.841 366.561 297.728C369.222 298.615 371.375 300.008 372.769 301.909C374.162 303.935 374.922 306.596 374.922 310.016V314.07H363.901ZM349.586 282.019C351.993 282.019 354.146 281.639 356.047 280.879C357.947 280.119 359.34 278.979 360.354 277.459C361.367 275.939 361.874 274.165 361.874 272.011C361.874 269.858 361.367 267.958 360.354 266.437C359.34 264.917 357.947 263.777 356.047 262.89C354.273 262.004 351.993 261.623 349.586 261.623C347.179 261.623 345.025 262.004 343.125 262.89C341.225 263.777 339.831 264.917 338.818 266.437C337.804 267.958 337.297 269.858 337.297 272.011C337.297 274.165 337.804 275.939 338.818 277.459C339.831 278.979 341.225 280.119 343.125 280.879C344.899 281.513 347.052 282.019 349.586 282.019Z" fill="white"/>
<path d="M384.043 254.023H395.192V296.588H384.043V254.023ZM414.954 253.009C417.615 253.009 420.021 253.389 422.175 254.023C424.455 254.656 426.356 255.796 428.003 257.19C429.649 258.583 430.916 260.483 431.803 262.637C432.69 264.791 433.196 267.451 433.196 270.491V296.461H422.048V272.391C422.048 268.844 421.162 266.184 419.388 264.537C417.615 262.89 414.828 262.004 410.9 262.004C407.987 262.004 405.2 262.637 402.919 263.777C400.512 264.917 398.612 266.311 397.092 268.084C395.572 269.858 394.812 271.631 394.558 273.532L394.432 269.224C394.685 267.198 395.318 265.297 396.458 263.397C397.472 261.497 398.865 259.85 400.639 258.203C402.413 256.683 404.439 255.416 406.846 254.529C409.127 253.516 411.914 253.009 414.954 253.009Z" fill="white"/>
<path d="M454.352 235.4V245.155H441.43V235.4H454.352ZM442.317 254.023H453.465V296.588H442.317V254.023Z" fill="white"/>
<path d="M459.8 254.023H492.864V262.637H459.8V254.023ZM470.695 242.368H481.843V296.461H470.695V242.368Z" fill="white"/>
<path d="M536.316 282.399H547.084C546.577 285.313 545.437 287.847 543.41 290.127C541.383 292.407 538.722 294.181 535.429 295.574C532.008 296.841 527.954 297.601 523.141 297.601C517.693 297.601 512.879 296.715 508.825 294.941C504.645 293.167 501.351 290.634 499.071 287.34C496.791 284.046 495.524 279.992 495.524 275.305C495.524 270.618 496.664 266.564 498.944 263.27C501.225 259.977 504.392 257.443 508.446 255.669C512.499 253.896 517.313 253.009 522.76 253.009C528.334 253.009 533.022 253.896 536.696 255.669C540.369 257.443 543.156 260.103 544.93 263.65C546.703 267.197 547.464 271.758 547.21 277.332H506.672C506.925 279.486 507.812 281.513 509.079 283.286C510.472 285.06 512.246 286.453 514.526 287.467C516.806 288.48 519.593 288.987 522.76 288.987C526.308 288.987 529.221 288.353 531.628 287.087C534.162 285.947 535.682 284.3 536.316 282.399ZM522.254 261.497C518.2 261.497 514.78 262.384 512.246 264.157C509.712 265.931 508.065 268.211 507.305 270.745H536.189C535.936 267.958 534.542 265.677 532.135 263.904C529.728 262.384 526.434 261.497 522.254 261.497Z" fill="white"/>
<path d="M176.629 357.352L167.663 348.386C164.112 344.835 164.112 339.179 167.663 335.629L176.629 326.663C180.179 323.112 185.835 323.112 189.386 326.663L198.352 335.629C201.902 339.179 201.902 344.835 198.352 348.386L189.386 357.352C185.896 360.842 180.179 360.842 176.629 357.352Z" fill="#06B656"/>
<path d="M189.566 333.823L187.4 333.523C187.34 333.523 187.28 333.523 187.219 333.583L186.317 334.786C186.257 334.846 186.257 334.967 186.257 335.027C186.257 335.087 186.196 335.207 186.136 335.147L185.354 334.967C185.234 334.967 185.113 334.967 185.053 335.087L182.044 338.938C181.984 338.998 181.864 339.059 181.804 338.998L180.66 338.457C180.54 338.397 180.42 338.397 180.36 338.457L179.758 338.878C179.637 338.938 179.517 338.938 179.457 338.878L179.156 338.758C178.976 338.637 178.735 338.758 178.735 338.938L178.554 339.841C178.494 340.082 178.615 340.262 178.795 340.382L179.216 340.623L180.6 341.466L181.262 341.887C181.443 342.007 181.683 342.007 181.864 341.827L183.007 340.804C183.128 340.744 183.248 340.683 183.368 340.744L183.729 340.924C183.85 340.984 183.97 340.984 184.09 340.864L184.692 340.322C184.813 340.262 184.933 340.202 185.053 340.262L185.896 340.683C186.016 340.744 186.197 340.683 186.257 340.563L186.678 340.082L189.687 336.23C189.807 336.05 189.747 335.809 189.506 335.749L188.844 335.629C188.724 335.569 188.664 335.448 188.724 335.328L189.747 334.064C189.807 334.004 189.687 333.823 189.566 333.823Z" fill="white"/>
<path d="M179.637 341.586C179.577 341.526 179.517 341.586 179.517 341.646L179.818 342.489C179.818 342.549 179.818 342.609 179.818 342.669L179.517 343.752C179.517 343.812 179.517 343.873 179.577 343.933L180.36 344.535C180.42 344.595 180.54 344.595 180.6 344.535L181.443 343.812C181.503 343.752 181.563 343.752 181.623 343.752L182.586 343.632C182.646 343.632 182.646 343.512 182.646 343.512L179.637 341.586Z" fill="white"/>
<path d="M179.337 344.414C179.276 344.354 179.216 344.354 179.156 344.414L178.494 344.715C178.434 344.715 178.434 344.775 178.434 344.835L176.99 348.386C176.99 348.386 176.99 348.386 177.05 348.386L177.351 348.265C177.351 348.265 177.351 348.265 177.411 348.265V348.325L176.388 350.01C176.388 350.071 176.388 350.071 176.448 350.071L180.179 346.28C180.239 346.219 180.239 346.219 180.239 346.159L180.299 345.196C180.299 345.136 180.299 345.076 180.239 345.016L179.337 344.414Z" fill="white"/>
<path d="M925.254 327.837H918.772V339H915.114V311.405H924.249C927.357 311.405 929.745 312.113 931.413 313.528C933.094 314.943 933.934 317.003 933.934 319.706C933.934 321.425 933.466 322.922 932.531 324.198C931.609 325.474 930.32 326.428 928.665 327.06L935.147 338.773V339H931.243L925.254 327.837ZM918.772 324.862H924.363C926.17 324.862 927.604 324.394 928.665 323.459C929.739 322.524 930.276 321.273 930.276 319.706C930.276 318.001 929.764 316.693 928.741 315.783C927.73 314.874 926.264 314.412 924.344 314.4H918.772V324.862ZM947.011 339.379C944.231 339.379 941.97 338.469 940.226 336.65C938.482 334.818 937.611 332.373 937.611 329.315V328.671C937.611 326.637 937.996 324.824 938.767 323.232C939.55 321.627 940.637 320.376 942.027 319.479C943.429 318.569 944.945 318.114 946.575 318.114C949.241 318.114 951.313 318.993 952.791 320.749C954.27 322.505 955.009 325.019 955.009 328.292V329.751H941.117C941.167 331.773 941.755 333.409 942.879 334.66C944.017 335.898 945.457 336.517 947.201 336.517C948.439 336.517 949.487 336.265 950.347 335.759C951.206 335.254 951.958 334.584 952.602 333.75L954.744 335.418C953.025 338.059 950.448 339.379 947.011 339.379ZM946.575 320.995C945.16 320.995 943.972 321.513 943.012 322.549C942.052 323.573 941.458 325.013 941.231 326.87H951.503V326.605C951.402 324.824 950.922 323.446 950.062 322.474C949.203 321.488 948.041 320.995 946.575 320.995ZM971.744 339C971.542 338.596 971.377 337.875 971.251 336.839C969.621 338.533 967.675 339.379 965.414 339.379C963.392 339.379 961.731 338.81 960.429 337.673C959.141 336.524 958.496 335.071 958.496 333.314C958.496 331.179 959.305 329.524 960.922 328.349C962.552 327.161 964.839 326.567 967.783 326.567H971.194V324.956C971.194 323.731 970.828 322.758 970.095 322.038C969.362 321.305 968.282 320.938 966.854 320.938C965.603 320.938 964.555 321.254 963.708 321.886C962.862 322.518 962.438 323.282 962.438 324.179H958.913C958.913 323.156 959.273 322.17 959.993 321.223C960.726 320.262 961.712 319.504 962.95 318.948C964.201 318.392 965.572 318.114 967.063 318.114C969.425 318.114 971.276 318.708 972.616 319.896C973.955 321.071 974.65 322.695 974.7 324.767V334.205C974.7 336.088 974.941 337.585 975.421 338.697V339H971.744ZM965.925 336.328C967.025 336.328 968.067 336.043 969.053 335.475C970.038 334.906 970.752 334.167 971.194 333.257V329.05H968.446C964.15 329.05 962.002 330.307 962.002 332.822C962.002 333.921 962.369 334.78 963.102 335.399C963.834 336.018 964.776 336.328 965.925 336.328ZM988.422 336.517C989.673 336.517 990.766 336.138 991.701 335.38C992.636 334.622 993.154 333.674 993.255 332.537H996.571C996.508 333.712 996.104 334.83 995.359 335.892C994.613 336.953 993.615 337.8 992.364 338.431C991.126 339.063 989.812 339.379 988.422 339.379C985.63 339.379 983.406 338.45 981.751 336.593C980.108 334.723 979.287 332.171 979.287 328.936V328.349C979.287 326.352 979.653 324.577 980.386 323.023C981.119 321.469 982.168 320.262 983.532 319.403C984.909 318.544 986.533 318.114 988.403 318.114C990.703 318.114 992.61 318.803 994.127 320.18C995.655 321.557 996.47 323.345 996.571 325.544H993.255C993.154 324.217 992.648 323.131 991.739 322.284C990.842 321.425 989.73 320.995 988.403 320.995C986.621 320.995 985.238 321.64 984.252 322.928C983.28 324.205 982.793 326.056 982.793 328.481V329.145C982.793 331.507 983.28 333.327 984.252 334.603C985.225 335.879 986.615 336.517 988.422 336.517ZM1005.27 313.528V318.494H1009.1V321.204H1005.27V333.921C1005.27 334.742 1005.44 335.361 1005.78 335.778C1006.12 336.182 1006.7 336.385 1007.53 336.385C1007.93 336.385 1008.49 336.309 1009.19 336.157V339C1008.27 339.253 1007.37 339.379 1006.5 339.379C1004.94 339.379 1003.75 338.905 1002.96 337.958C1002.16 337.01 1001.76 335.664 1001.76 333.921V321.204H998.031V318.494H1001.76V313.528H1005.27ZM1044.6 339H1040.94L1027.05 317.735V339H1023.39V311.405H1027.05L1040.98 332.765V311.405H1044.6V339ZM1063.17 339C1062.97 338.596 1062.8 337.875 1062.68 336.839C1061.05 338.533 1059.1 339.379 1056.84 339.379C1054.82 339.379 1053.16 338.81 1051.86 337.673C1050.57 336.524 1049.92 335.071 1049.92 333.314C1049.92 331.179 1050.73 329.524 1052.35 328.349C1053.98 327.161 1056.27 326.567 1059.21 326.567H1062.62V324.956C1062.62 323.731 1062.25 322.758 1061.52 322.038C1060.79 321.305 1059.71 320.938 1058.28 320.938C1057.03 320.938 1055.98 321.254 1055.13 321.886C1054.29 322.518 1053.86 323.282 1053.86 324.179H1050.34C1050.34 323.156 1050.7 322.17 1051.42 321.223C1052.15 320.262 1053.14 319.504 1054.38 318.948C1055.63 318.392 1057 318.114 1058.49 318.114C1060.85 318.114 1062.7 318.708 1064.04 319.896C1065.38 321.071 1066.08 322.695 1066.13 324.767V334.205C1066.13 336.088 1066.37 337.585 1066.85 338.697V339H1063.17ZM1057.35 336.328C1058.45 336.328 1059.49 336.043 1060.48 335.475C1061.46 334.906 1062.18 334.167 1062.62 333.257V329.05H1059.87C1055.58 329.05 1053.43 330.307 1053.43 332.822C1053.43 333.921 1053.8 334.78 1054.53 335.399C1055.26 336.018 1056.2 336.328 1057.35 336.328ZM1076.38 313.528V318.494H1080.21V321.204H1076.38V333.921C1076.38 334.742 1076.55 335.361 1076.89 335.778C1077.23 336.182 1077.81 336.385 1078.64 336.385C1079.04 336.385 1079.6 336.309 1080.3 336.157V339C1079.38 339.253 1078.48 339.379 1077.61 339.379C1076.05 339.379 1074.86 338.905 1074.07 337.958C1073.27 337.01 1072.87 335.664 1072.87 333.921V321.204H1069.14V318.494H1072.87V313.528H1076.38ZM1088.13 339H1084.62V318.494H1088.13V339ZM1084.34 313.054C1084.34 312.486 1084.51 312.005 1084.85 311.614C1085.21 311.222 1085.72 311.026 1086.41 311.026C1087.09 311.026 1087.61 311.222 1087.96 311.614C1088.31 312.005 1088.49 312.486 1088.49 313.054C1088.49 313.623 1088.31 314.097 1087.96 314.476C1087.61 314.855 1087.09 315.044 1086.41 315.044C1085.72 315.044 1085.21 314.855 1084.85 314.476C1084.51 314.097 1084.34 313.623 1084.34 313.054ZM1100.53 334.243L1105.6 318.494H1109.19L1101.83 339H1099.16L1091.73 318.494H1095.31L1100.53 334.243ZM1120.8 339.379C1118.02 339.379 1115.76 338.469 1114.02 336.65C1112.28 334.818 1111.4 332.373 1111.4 329.315V328.671C1111.4 326.637 1111.79 324.824 1112.56 323.232C1113.34 321.627 1114.43 320.376 1115.82 319.479C1117.22 318.569 1118.74 318.114 1120.37 318.114C1123.03 318.114 1125.11 318.993 1126.58 320.749C1128.06 322.505 1128.8 325.019 1128.8 328.292V329.751H1114.91C1114.96 331.773 1115.55 333.409 1116.67 334.66C1117.81 335.898 1119.25 336.517 1120.99 336.517C1122.23 336.517 1123.28 336.265 1124.14 335.759C1125 335.254 1125.75 334.584 1126.4 333.75L1128.54 335.418C1126.82 338.059 1124.24 339.379 1120.8 339.379ZM1120.37 320.995C1118.95 320.995 1117.77 321.513 1116.81 322.549C1115.85 323.573 1115.25 325.013 1115.02 326.87H1125.3V326.605C1125.19 324.824 1124.71 323.446 1123.86 322.474C1123 321.488 1121.83 320.995 1120.37 320.995Z" fill="#667DFF"/>
<path d="M1066.24 203.701L1066.84 202.672L1066.24 203.701C1069.12 205.36 1070.87 208.44 1070.83 211.758L1070.27 258.093C1070.23 261.291 1068.52 264.238 1065.77 265.87L1025.91 289.527C1023.05 291.22 1019.51 291.242 1016.63 289.584L976.284 266.299L976.284 266.299C973.475 264.678 971.73 261.695 971.695 258.453L970.508 258.466L971.695 258.453L971.188 211.499C971.152 208.151 972.943 205.049 975.863 203.406L1016.8 180.368L1016.8 180.368C1019.63 178.777 1023.08 178.795 1025.89 180.417C1025.89 180.417 1025.89 180.417 1025.89 180.417L1066.24 203.701Z" stroke="url(#paint3_linear)" stroke-width="2.37499"/>
<path d="M1055.38 211.532L1025.12 194.651C1022.74 193.324 1019.81 193.309 1017.41 194.611L986.712 211.314C984.239 212.659 982.721 215.199 982.752 217.941L983.132 251.983C983.162 254.638 984.639 257.08 987.019 258.407L1017.28 275.289C1019.72 276.647 1022.72 276.629 1025.14 275.242L1055.04 258.091C1057.37 256.754 1058.81 254.342 1058.84 251.723L1059.26 218.13C1059.3 215.413 1057.81 212.891 1055.38 211.532Z" fill="url(#paint4_linear)"/>
<path d="M1022.19 255.227C1021.67 254.769 1021.13 254.309 1020.62 253.8C1020.2 254.182 1019.82 254.539 1019.41 254.895C1014.3 259.3 1009.03 261.133 1005.91 259.351C1002.89 257.645 1001.94 252.605 1003.15 246.264C1003.28 245.577 1003.43 244.89 1003.61 244.203C1003.07 244.043 1002.55 243.896 1002.04 243.724C995.607 241.53 991.375 237.966 991.375 234.401C991.375 230.965 995.324 227.629 1001.49 225.491C1002.18 225.261 1002.91 225.033 1003.66 224.829C1003.49 224.166 1003.35 223.53 1003.22 222.914C1001.93 216.477 1002.83 211.336 1005.88 209.604C1009.05 207.77 1014.32 209.732 1019.61 214.339C1019.92 214.618 1020.23 214.925 1020.56 215.229C1021.05 214.771 1021.52 214.313 1022.01 213.906C1027.02 209.598 1032 207.796 1035.04 209.527C1038.22 211.308 1039.15 216.808 1037.73 223.606C1037.65 224.04 1037.56 224.447 1037.45 224.883C1038.09 225.062 1038.74 225.264 1039.33 225.469C1045.63 227.607 1049.71 230.942 1049.65 234.455C1049.65 238.044 1045.29 241.584 1038.6 243.773C1038.24 243.875 1037.88 244.003 1037.52 244.104C1037.67 244.613 1037.78 245.122 1037.88 245.631C1039.22 252.225 1038.19 257.622 1035.07 259.405C1034.25 259.861 1033.3 260.093 1032.35 260.075C1029.48 260.07 1025.85 258.329 1022.19 255.227ZM1027.25 245.883C1025.77 248.015 1024.14 250.056 1022.37 251.994C1022.86 252.472 1023.35 252.911 1023.84 253.318C1028.1 256.933 1032.02 258.283 1033.86 257.239C1034.42 256.794 1034.88 256.249 1035.2 255.636C1035.53 255.024 1035.72 254.358 1035.77 253.676C1036.14 251.149 1036.04 248.582 1035.46 246.089C1035.38 245.631 1035.29 245.173 1035.15 244.689C1032.55 245.252 1029.91 245.651 1027.25 245.883ZM1005.62 246.699C1004.56 252.125 1005.34 256.168 1007.17 257.214C1007.83 257.465 1008.53 257.581 1009.23 257.554C1009.94 257.526 1010.63 257.356 1011.25 257.054C1013.69 256.109 1015.9 254.743 1017.78 253.031C1018.17 252.725 1018.53 252.369 1018.92 252.013C1017.12 250.074 1015.44 248.033 1013.91 245.902C1011.26 245.698 1008.63 245.324 1006.04 244.785C1005.88 245.451 1005.75 246.086 1005.62 246.699ZM1020.64 250.262C1021.78 249.014 1022.91 247.64 1024.05 246.113C1022.91 246.164 1021.73 246.189 1020.54 246.189C1019.35 246.189 1018.24 246.164 1017.13 246.113C1018.29 247.613 1019.46 249.014 1020.64 250.262H1020.64ZM1015.22 225.414C1014.24 226.814 1013.29 228.287 1012.38 229.844C1011.48 231.372 1010.66 232.925 1009.9 234.473C1010.68 236 1011.51 237.553 1012.41 239.133C1013.31 240.66 1014.27 242.165 1015.25 243.587C1016.95 243.689 1018.73 243.746 1020.54 243.746C1022.34 243.746 1024.15 243.695 1025.88 243.569C1026.81 242.169 1027.76 240.666 1028.67 239.113C1029.57 237.561 1030.42 235.982 1031.17 234.455C1030.42 232.953 1029.57 231.4 1028.67 229.846C1027.77 228.292 1026.81 226.814 1025.86 225.416C1024.13 225.288 1022.35 225.212 1020.54 225.212C1018.73 225.212 1016.95 225.287 1015.22 225.414ZM1006.71 242.446C1008.48 242.819 1010.27 243.1 1012.07 243.287C1011.45 242.319 1010.84 241.351 1010.24 240.333C1009.67 239.34 1009.11 238.347 1008.59 237.355C1007.84 239.085 1007.22 240.794 1006.71 242.446ZM1030.84 240.307C1030.24 241.325 1029.65 242.292 1029.06 243.236C1030.89 243.023 1032.71 242.718 1034.5 242.319C1033.94 240.601 1033.29 238.91 1032.54 237.253C1032 238.271 1031.43 239.289 1030.84 240.307ZM1002.29 227.832C997.027 229.666 993.853 232.336 993.853 234.426C993.953 235.099 994.196 235.746 994.568 236.332C994.94 236.918 995.434 237.429 996.02 237.838C998.034 239.404 1000.34 240.612 1002.83 241.402C1003.3 241.561 1003.79 241.683 1004.28 241.836C1005.07 239.332 1006.03 236.874 1007.14 234.477C1006.03 232.121 1005.08 229.7 1004.31 227.229C1003.61 227.401 1002.94 227.602 1002.29 227.832ZM1033.96 234.426C1035.11 236.793 1036.09 239.225 1036.9 241.707C1037.23 241.605 1037.57 241.502 1037.88 241.4C1043.63 239.517 1047.2 236.64 1047.22 234.399C1047.22 232.312 1043.92 229.611 1038.52 227.779C1037.98 227.602 1037.39 227.424 1036.8 227.245C1036.01 229.691 1035.07 232.09 1033.96 234.426ZM1030.81 228.571C1031.41 229.589 1031.97 230.583 1032.49 231.576C1033.21 229.954 1033.83 228.296 1034.35 226.611C1032.59 226.218 1030.82 225.912 1029.03 225.695C1029.65 226.635 1030.24 227.578 1030.81 228.571H1030.81ZM1006.73 226.591C1007.25 228.22 1007.87 229.875 1008.59 231.579C1009.11 230.587 1009.67 229.594 1010.24 228.601C1010.81 227.609 1011.4 226.642 1012.02 225.698C1010.16 225.923 1008.41 226.228 1006.73 226.591ZM1023.64 215.77C1023.2 216.152 1022.76 216.559 1022.32 216.967C1024.11 218.882 1025.76 220.908 1027.25 223.032C1029.88 223.266 1032.48 223.675 1035.04 224.254C1035.15 223.873 1035.22 223.49 1035.3 223.108C1036.51 217.253 1035.77 212.772 1033.81 211.653C1033.37 211.43 1032.89 211.319 1032.39 211.334C1030.28 211.324 1027.05 212.842 1023.64 215.766V215.77ZM1007.12 211.717C1005.29 212.761 1004.56 216.935 1005.65 222.435C1005.78 223.021 1005.91 223.605 1006.06 224.216C1008.63 223.658 1011.23 223.258 1013.85 223.019C1015.35 220.892 1017.01 218.866 1018.81 216.955C1018.53 216.674 1018.22 216.42 1017.93 216.165C1014.34 213.026 1010.89 211.369 1008.63 211.369C1008.1 211.352 1007.58 211.473 1007.12 211.717ZM1024 222.816C1022.93 221.393 1021.78 220.025 1020.56 218.718C1019.4 219.964 1018.23 221.34 1017.1 222.816C1018.24 222.765 1019.37 222.74 1020.54 222.74C1021.7 222.74 1022.86 222.76 1024 222.816H1024ZM1015.38 234.528C1015.35 233.874 1015.47 233.222 1015.72 232.609C1015.97 231.996 1016.34 231.435 1016.83 230.957C1017.31 230.479 1017.89 230.094 1018.54 229.824C1019.19 229.555 1019.88 229.405 1020.59 229.385C1022.02 229.43 1023.37 229.997 1024.35 230.961C1025.32 231.925 1025.85 233.208 1025.8 234.528C1025.85 235.85 1025.33 237.134 1024.35 238.1C1023.37 239.065 1022.02 239.632 1020.59 239.677C1019.88 239.656 1019.18 239.507 1018.54 239.237C1017.89 238.967 1017.31 238.581 1016.83 238.103C1016.34 237.625 1015.96 237.063 1015.72 236.449C1015.47 235.836 1015.35 235.183 1015.38 234.528Z" fill="#667DFF"/>
</g>
<defs>
<radialGradient id="paint0_radial" cx="0" cy="0" r="1" gradientUnits="userSpaceOnUse" gradientTransform="translate(182.867 275.655) scale(91.346)">
<stop stop-color="#68E5A0"/>
<stop offset="0.00567427" stop-color="#04D361"/>
<stop offset="0.584253" stop-color="#04D361" stop-opacity="0"/>
</radialGradient>
<linearGradient id="paint1_linear" x1="183.061" y1="279.496" x2="183.061" y2="357.286" gradientUnits="userSpaceOnUse">
<stop stop-color="#06B656"/>
<stop offset="0.380208" stop-color="#08994A" stop-opacity="0"/>
</linearGradient>
<linearGradient id="paint2_linear" x1="183.061" y1="279.496" x2="183.061" y2="357.286" gradientUnits="userSpaceOnUse">
<stop stop-color="#06B656"/>
<stop offset="0.4633" stop-color="#08994A" stop-opacity="0"/>
</linearGradient>
<linearGradient id="paint3_linear" x1="996.213" y1="190.112" x2="1048.37" y2="278.203" gradientUnits="userSpaceOnUse">
<stop stop-color="#667DFF"/>
<stop offset="1" stop-color="#667DFF" stop-opacity="0.25"/>
</linearGradient>
<linearGradient id="paint4_linear" x1="982.769" y1="193.869" x2="1065.1" y2="270.111" gradientUnits="userSpaceOnUse">
<stop stop-color="#3346B0"/>
<stop offset="1" stop-color="#121214"/>
</linearGradient>
<clipPath id="clip0">
<rect width="1280" height="540" fill="white"/>
</clipPath>
</defs>
</svg>